P3
4 3
255
48 42 33 196 174 136 100 88 69 0 0 0
48 42 33 196 174 136 100 88 69 172 153 119
48 42 33 196 174 136 100 88 69 255 255 238
